<svg viewBox="166 182 712 768" xmlns="http://www.w3.org/2000/svg" fill="none" stroke="#000" stroke-width="30" stroke-linecap="round" stroke-linejoin="round">
  <!-- bean body (egg, narrower top under cap) -->
  <path d="M 510 300 C 650 305, 758 470, 753 645 C 748 830, 643 925, 503 920 C 363 915, 298 795, 306 618 C 314 478, 408 297, 510 300 Z" fill="#fff"/>
  <!-- crease down the bean, starts under cap -->
  <path d="M 555 535 C 595 645, 455 715, 475 885" fill="none"/>
  <!-- cap dome -->
  <path d="M 350 470 C 360 300, 480 232, 600 244 C 740 258, 842 380, 848 545 C 700 590, 520 502, 350 470 Z" fill="#fff"/>
  <!-- cap panel seam -->
  <path d="M 712 565 C 715 430, 672 320, 598 246" fill="none"/>
  <!-- brim sweeping left -->
  <path d="M 360 468 C 250 480, 183 514, 198 541 C 214 568, 352 572, 472 553 C 592 535, 688 553, 716 570 C 700 518, 560 461, 360 468 Z" fill="#fff"/>
  <!-- button -->
  <circle cx="600" cy="238" r="26" fill="#fff"/>
  <!-- eyes -->
  <ellipse cx="460" cy="628" rx="23" ry="29" fill="#000" stroke="none"/>
  <ellipse cx="647" cy="622" rx="23" ry="29" fill="#000" stroke="none"/>
  <!-- smile -->
  <path d="M 545 653 Q 566 674 592 656" stroke-width="17" fill="none"/>
  <!-- freckles -->
  <g stroke-width="13">
    <path d="M 404 673 l 3 15"/><path d="M 432 681 l 3 15"/>
    <path d="M 694 662 l 3 15"/><path d="M 722 651 l 3 15"/>
  </g>
</svg>
